<mxfile host="app.diagrams.net" modified="2023-12-15T03:44:57.506Z" agent="Mozilla/5.0 (Windows NT 10.0; Win64; x64) AppleWebKit/537.36 (KHTML, like Gecko) Chrome/119.0.0.0 Safari/537.36 Edg/119.0.0.0" version="22.1.8" etag="7gjd39rmF2gHwgZuvt73" type="github">
  <diagram name="Page-1" id="lxNtq8wg8YZ9eOxd9NEZ">
    <mxGraphModel>
      <root>
        <mxCell id="0" />
        <mxCell id="1" parent="0" />
      </root>
    </mxGraphModel>
  </diagram>
</mxfile>
